{
  "asset": {
    "generator": "Khronos glTF Blender I/O v3.6.27",
    "version": "2.0"
  },
  "extensionsUsed": [
    "KHR_materials_specular",
    "KHR_materials_ior"
  ],
  "scene": 0,
  "scenes": [
    {
      "name": "Scene",
      "nodes": [
        0
      ]
    }
  ],
  "nodes": [
    {
      "mesh": 0,
      "name": "dirty_football",
      "translation": [
        0.0033508981578052044,
        0.11360090970993042,
        -0.0023006193805485964
      ]
    }
  ],
  "materials": [
    {
      "doubleSided": true,
      "extensions": {
        "KHR_materials_specular": {
          "specularColorFactor": [
            0,
            0,
            0
          ]
        },
        "KHR_materials_ior": {
          "ior": 1.4500000476837158
        }
      },
      "name": "dirty_football",
      "normalTexture": {
        "index": 0
      },
      "pbrMetallicRoughness": {
        "baseColorTexture": {
          "index": 1
        },
        "metallicFactor": 0,
        "metallicRoughnessTexture": {
          "index": 2
        }
      }
    }
  ],
  "meshes": [
    {
      "name": "FootBall_LOD0",
      "primitives": [
        {
          "attributes": {
            "POSITION": 0,
            "NORMAL": 1,
            "TEXCOORD_0": 2
          },
          "indices": 3,
          "material": 0
        }
      ]
    }
  ],
  "textures": [
    {
      "sampler": 0,
      "source": 0
    },
    {
      "sampler": 0,
      "source": 1
    },
    {
      "sampler": 0,
      "source": 2
    }
  ],
  "images": [
    {
      "mimeType": "image/jpeg",
      "name": "dirty_football_nor_gl",
      "uri": "textures/dirty_football_nor_gl_1k.jpg"
    },
    {
      "mimeType": "image/jpeg",
      "name": "dirty_football_diff",
      "uri": "textures/dirty_football_diff_1k.jpg"
    },
    {
      "mimeType": "image/jpeg",
      "name": "dirty_football_rough",
      "uri": "textures/dirty_football_arm_1k.jpg"
    }
  ],
  "accessors": [
    {
      "bufferView": 0,
      "componentType": 5126,
      "count": 19328,
      "max": [
        0.11126463115215302,
        0.1058010458946228,
        0.11222375929355621
      ],
      "min": [
        -0.11013074219226837,
        -0.11424549669027328,
        -0.10778549313545227
      ],
      "type": "VEC3"
    },
    {
      "bufferView": 1,
      "componentType": 5126,
      "count": 19328,
      "type": "VEC3"
    },
    {
      "bufferView": 2,
      "componentType": 5126,
      "count": 19328,
      "type": "VEC2"
    },
    {
      "bufferView": 3,
      "componentType": 5123,
      "count": 59994,
      "type": "SCALAR"
    }
  ],
  "bufferViews": [
    {
      "buffer": 0,
      "byteLength": 231936,
      "byteOffset": 0,
      "target": 34962
    },
    {
      "buffer": 0,
      "byteLength": 231936,
      "byteOffset": 231936,
      "target": 34962
    },
    {
      "buffer": 0,
      "byteLength": 154624,
      "byteOffset": 463872,
      "target": 34962
    },
    {
      "buffer": 0,
      "byteLength": 119988,
      "byteOffset": 618496,
      "target": 34963
    }
  ],
  "samplers": [
    {
      "magFilter": 9729,
      "minFilter": 9987
    }
  ],
  "buffers": [
    {
      "byteLength": 738484,
      "uri": "dirty_football.bin"
    }
  ]
}